<?xml version="1.0" encoding="UTF-8"?>
<svg version="1.1" xmlns="http://www.w3.org/2000/svg" width="83" height="61">
<path d="M0 0 C2.53197085 2.51653201 4.9168554 5.09715649 7 8 C7 8.66 7 9.32 7 10 C10.25839336 6.97434902 12.59575105 3.73073113 15 0 C16 -1 16 -1 19.16015625 -1.09765625 C20.44792969 -1.08605469 21.73570313 -1.07445313 23.0625 -1.0625 C24.99802734 -1.04896484 24.99802734 -1.04896484 26.97265625 -1.03515625 C27.97167969 -1.02355469 28.97070312 -1.01195313 30 -1 C30.495 -0.01 30.495 -0.01 31 1 C30.18310547 2.75244141 30.18310547 2.75244141 28.8671875 4.8515625 C28.39023438 5.62113281 27.91328125 6.39070312 27.421875 7.18359375 C26.65617187 8.39208984 26.65617187 8.39208984 25.875 9.625 C25.38773437 10.40746094 24.90046875 11.18992187 24.3984375 11.99609375 C20.41372502 18.38647041 20.41372502 18.38647041 18.51879883 21.1965332 C15.29904824 26.04407503 14.41095881 28.65674335 15.34375 34.46875 C16.72427569 39.79363481 18.95803086 44.43704629 22 49 C24.64691668 49.80092254 24.64691668 49.80092254 27.625 50.1875 C28.62789063 50.34605469 29.63078125 50.50460938 30.6640625 50.66796875 C31.43492188 50.77753906 32.20578125 50.88710938 33 51 C31.86308867 54.410734 31.4839887 54.63146566 28.4375 56.1875 C23.97172504 58.25661577 20.89400456 58.63148446 16 58 C9.86421554 54.81411192 6.23224137 50.510704 4 44 C3.5875 44.37511719 3.175 44.75023437 2.75 45.13671875 C-7.3724739 54.10685745 -17.39833504 58.77248054 -31.20703125 58.34375 C-38.03518892 57.50336136 -42.6192153 54.19962778 -46.8125 48.85546875 C-50.38095108 43.27976393 -50.75434527 37.05974906 -49.5703125 30.6875 C-47.80855237 23.72745998 -44.36758078 18.61825268 -40 13 C-39.236875 11.948125 -38.47375 10.89625 -37.6875 9.8125 C-28.61447813 0.31747711 -12.43390716 -8.64967454 0 0 Z M-27.02001953 14.12695312 C-27.42591309 14.76568359 -27.83180664 15.40441406 -28.25 16.0625 C-28.68038574 16.72572266 -29.11077148 17.38894531 -29.55419922 18.07226562 C-34.13956145 25.40743051 -37.01199719 33.2293577 -36 42 C-35.20486673 44.53831007 -34.23975391 46.61585787 -33 49 C-29.77239609 50.61380195 -27.59420831 50.39935648 -24 50 C-14.86459463 45.4886887 -6.39844478 37.21652917 -2 28 C-0.45935115 21.30817406 -2.75994673 14.85944699 -6 9 C-8.47236049 6.33745794 -9.85021406 5.2420602 -13.375 4.5 C-19.60340096 5.68636209 -23.56165306 9.04911805 -27.02001953 14.12695312 Z " fill="#FFFFFF" transform="translate(50,3)"/>
</svg>
